<?xml version="1.0" encoding="UTF-8" standalone="no"?>
<!DOCTYPE svg PUBLIC "-//W3C//DTD SVG 1.1//EN" "http://www.w3.org/Graphics/SVG/1.1/DTD/svg11.dtd">
<svg width="100%" height="100%" viewBox="0 0 300 300" version="1.1" xmlns="http://www.w3.org/2000/svg" xmlns:xlink="http://www.w3.org/1999/xlink" xml:space="preserve" xmlns:serif="http://www.serif.com/" style="fill-rule:evenodd;clip-rule:evenodd;stroke-linejoin:round;stroke-miterlimit:1.41421;">
    <path d="M300,45C300,20.164 279.836,0 255,0L45,0C20.164,0 0,20.164 0,45L0,255C0,279.836 20.164,300 45,300L255,300C279.836,300 300,279.836 300,255L300,45Z" style="fill:rgb(110,170,39);"/>
    <g id="Layer1">
        <g transform="matrix(1,0,0,1,0,12)">
            <path d="M221.337,239.244L78.663,239.244L114.332,96.956L115.507,96.956C123.097,107.859 135.721,115 150,115C164.279,115 176.903,107.859 184.493,96.956L185.668,96.956L221.337,239.244Z" style="fill:white;"/>
        </g>
        <g transform="matrix(1,0,0,1,5,-35)">
            <circle cx="145" cy="108" r="42" style="fill:white;"/>
        </g>
    </g>
</svg>
